<?xml version="1.0" encoding="UTF-8" standalone="no"?>
<!-- Created with Inkscape (http://www.inkscape.org/) -->

<svg
   width="210mm"
   height="297mm"
   viewBox="0 0 210 297"
   version="1.1"
   id="svg1"
   inkscape:version="1.3 (0e150ed6c4, 2023-07-21)"
   sodipodi:docname="Type1TestingSystem.svg"
   xmlns:inkscape="http://www.inkscape.org/namespaces/inkscape"
   xmlns:sodipodi="http://sodipodi.sourceforge.net/DTD/sodipodi-0.dtd"
   xmlns="http://www.w3.org/2000/svg"
   xmlns:svg="http://www.w3.org/2000/svg">
  <sodipodi:namedview
     id="namedview1"
     pagecolor="#ffffff"
     bordercolor="#000000"
     borderopacity="0.25"
     inkscape:showpageshadow="2"
     inkscape:pageopacity="0.0"
     inkscape:pagecheckerboard="0"
     inkscape:deskcolor="#d1d1d1"
     inkscape:document-units="mm"
     inkscape:zoom="0.72426347"
     inkscape:cx="376.93465"
     inkscape:cy="494.29526"
     inkscape:window-width="1547"
     inkscape:window-height="830"
     inkscape:window-x="1977"
     inkscape:window-y="103"
     inkscape:window-maximized="0"
     inkscape:current-layer="layer1" />
  <defs
     id="defs1">
    <inkscape:path-effect
       effect="bend_path"
       id="path-effect4"
       is_visible="true"
       lpeversion="1"
       bendpath="m 30.321033,135.71403 c 61.698568,-6.31464 110.540047,-4.84736 153.797047,0"
       prop_scale="1"
       scale_y_rel="false"
       vertical="false"
       hide_knot="false"
       bendpath-nodetypes="cc" />
    <inkscape:path-effect
       effect="bend_path"
       id="path-effect3"
       is_visible="true"
       lpeversion="1"
       bendpath="m -177.26508,101.07043 h 8.40222"
       prop_scale="1"
       scale_y_rel="false"
       vertical="false"
       hide_knot="false" />
    <inkscape:path-effect
       effect="bend_path"
       id="path-effect1"
       is_visible="true"
       lpeversion="1"
       bendpath="m 51.874538,100.09594 c 37.930318,-15.705655 64.784522,-9.259087 90.232472,0"
       prop_scale="1"
       scale_y_rel="false"
       vertical="false"
       hide_knot="false"
       bendpath-nodetypes="cc" />
    <inkscape:path-effect
       effect="bend_path"
       id="path-effect1-4"
       is_visible="true"
       lpeversion="1"
       bendpath="m 51.874538,100.09594 c 37.930318,-15.705655 64.784522,-9.259087 90.232472,0"
       prop_scale="1"
       scale_y_rel="false"
       vertical="false"
       hide_knot="false"
       bendpath-nodetypes="cc" />
    <inkscape:path-effect
       effect="bend_path"
       id="path-effect4-9"
       is_visible="true"
       lpeversion="1"
       bendpath="m 30.321033,135.71403 c 61.698568,-6.31464 110.540047,-4.84736 153.797047,0"
       prop_scale="1"
       scale_y_rel="false"
       vertical="false"
       hide_knot="false"
       bendpath-nodetypes="cc" />
  </defs>
  <g
     inkscape:label="Layer 1"
     inkscape:groupmode="layer"
     id="layer1">
    <circle
       style="fill:#9393ac;stroke:#000000;stroke-width:0;stroke-opacity:0.988235"
       id="path5"
       cx="105.75831"
       cy="116.7177"
       r="81.282288"
       inkscape:export-filename="..\..\Users\Andrew Martin Berry\path5.png"
       inkscape:export-xdpi="96"
       inkscape:export-ydpi="96" />
    <path
       style="fill:#eed7f4;stroke:#000000;stroke-width:0;stroke-opacity:0.988235"
       d="m 145.26762,48.576348 c 0,0 -38.51154,36.102278 -55.599637,49.678872 -19.29229,15.32783 -54.561133,30.206 -54.561133,30.206 0,0 21.519087,35.71027 41.595,48.95453 28.83059,19.01978 68.73467,-9.8509 68.73467,-9.8509 z"
       id="path4"
       sodipodi:nodetypes="cscscc" />
    <path
       style="fill:#6600ff;stroke:#000000;stroke-width:0;stroke-opacity:0.988235"
       id="rect1"
       width="90.232468"
       height="8.0369005"
       x="51.874538"
       y="96.077492"
       inkscape:path-effect="#path-effect1"
       sodipodi:type="rect"
       d="m 50.23964,96.42379 c 16.19688,-6.747896 33.865242,-10.646248 51.65294,-9.702002 14.42644,0.828739 28.29568,4.739981 41.49049,9.562087 l -2.74537,7.553855 C 127.7908,99.195261 114.6894,95.440983 101.45075,94.746535 85.149732,93.813922 68.65526,97.511702 53.319484,103.84682 Z"
       transform="matrix(0.60600975,0,0,0.60600975,19.793928,34.112384)" />
    <path
       style="fill:#6600ff;stroke:#000000;stroke-width:0;stroke-opacity:0.988235"
       id="rect1-8"
       width="90.232468"
       height="8.0369005"
       x="51.874538"
       y="96.077492"
       inkscape:path-effect="#path-effect1-4"
       sodipodi:type="rect"
       d="m 50.23964,96.42379 c 16.19688,-6.747896 33.865242,-10.646248 51.65294,-9.702002 14.42644,0.828739 28.29568,4.739981 41.49049,9.562087 l -2.74537,7.553855 C 127.7908,99.195261 114.6894,95.440983 101.45075,94.746535 85.149732,93.813922 68.65526,97.511702 53.319484,103.84682 Z"
       transform="matrix(0.44476651,0,0,0.44476651,78.077288,73.49302)" />
    <path
       style="fill:#6600ff;stroke:#000000;stroke-width:0;stroke-opacity:0.988235"
       id="rect3"
       width="153.79704"
       height="6.9409595"
       x="30.321033"
       y="132.24355"
       inkscape:path-effect="#path-effect4"
       sodipodi:type="rect"
       d="m 29.867594,132.27184 c 51.312708,-5.26086 103.208946,-5.75727 154.536846,-0.0179 l -0.77187,6.8979 c -50.7685,-5.68519 -102.171604,-5.18648 -153.057451,0.0248 z"
       transform="matrix(-0.04757993,0.60413903,-0.60413903,-0.04757993,160.0258,78.284259)" />
    <path
       style="fill:#6600ff;stroke:#000000;stroke-width:0;stroke-opacity:0.988235"
       id="rect3-1"
       width="153.79704"
       height="6.9409595"
       x="30.321033"
       y="132.24355"
       inkscape:path-effect="#path-effect4-9"
       sodipodi:type="rect"
       d="m 29.867594,132.27184 c 51.312708,-5.26086 103.208946,-5.75727 154.536846,-0.0179 l -0.77187,6.8979 c -50.7685,-5.68519 -102.171604,-5.18648 -153.057451,0.0248 z"
       transform="matrix(-0.03492016,0.44339354,-0.44339354,-0.03492016,181.50565,90.86596)" />
    <path
       d="m 141.92323,127.18601 q 0,1.1958 -0.42926,1.44109 -1.65572,0.85852 -3.67938,1.25712 -2.02366,0.3986 -4.16997,0.70522 -2.11564,0.27595 -4.23129,0.64389 -2.08498,0.36794 -3.92467,1.16514 0,0.30661 0.0613,0.88918 0.0613,0.58257 0.0613,0.91985 0,1.5944 -4.01666,1.5944 -0.36794,-0.0307 -0.67455,-0.33728 -0.27595,-0.33728 -0.55191,-0.70522 -0.27595,-0.36793 -0.55191,-0.64389 -0.24529,-0.27595 -0.5519,-0.21463 -0.45993,0 -3.34211,0.82786 -1.47175,0.3986 -2.36094,0.67456 -0.88918,0.24529 -1.25712,0.3986 -3.7407,1.1958 -5.21246,1.1958 -1.25712,0 -2.02366,-0.70522 -1.07315,-1.07315 -1.07315,-2.08498 0,-1.50242 2.26895,-2.20763 2.23829,-0.73588 5.33511,-1.28779 1.96233,-0.3986 4.01666,-0.82786 2.05432,-0.42926 3.71004,-1.1958 0.12265,-1.87035 0.24529,-3.43409 0.12265,-1.56374 0.27596,-2.88218 0.1533,-1.31845 0.33727,-3.09681 0.21463,-1.77837 0.52125,-4.01666 0.58257,-4.44593 1.01183,-7.45075 0.21463,-1.50242 0.3986,-2.85153 0.18397,-1.37976 0.33728,-2.63689 -1.77837,0 -4.93651,2.14631 -1.07315,0.70521 -1.93168,1.1958 -0.85852,0.45992 -1.47175,0.76654 -1.1958,0.58257 -3.46475,1.22646 -1.77837,0.49058 -3.00483,0.49058 -0.82786,0 -1.10382,-0.52124 -0.27595,-0.52125 -0.27595,-1.41043 0,-1.47176 0.88919,-1.93168 1.13447,-0.58257 3.18879,-1.44109 1.07316,-0.45992 1.71705,-0.73588 0.64389,-0.27595 0.85852,-0.3986 1.31845,-0.64389 2.48359,-1.25712 1.19579,-0.643892 2.26895,-1.257123 1.07315,-0.61323 2.63689,-1.533076 1.56374,-0.950507 3.61806,-2.176968 2.42226,-1.441092 2.9435,-1.441092 0.98117,0 1.65573,1.318446 0.73587,1.349107 0.73587,2.391599 0,0.858522 -0.88918,1.747706 -0.73588,3.158138 -1.37977,6.377598 -0.64389,3.21946 -1.22646,6.62289 -1.10381,6.7762 -1.10381,10.85418 0,0.18397 -0.0307,0.49058 0,0.30662 -0.0307,0.70522 0,0.36794 -0.0307,0.7972 0,0.3986 0,0.76653 0,0.52125 0.0307,0.91985 0.0613,0.3986 0.12265,0.70522 2.23829,-0.092 6.71487,-1.31845 2.05432,-0.55191 3.43409,-0.85852 1.41043,-0.33728 2.17697,-0.45993 1.10382,-0.1533 2.11565,-0.21463 1.04249,-0.092 2.02366,-0.092 0.73587,1.44109 0.73587,2.3916 z"
       id="text4"
       style="font-size:62.7948px;font-family:'Segoe Script';-inkscape-font-specification:'Segoe Script';fill:#6600ff;stroke:#000000;stroke-width:0;stroke-opacity:0.988235"
       transform="scale(0.77371253,1.2924697)"
       aria-label="1" />
    <text
       xml:space="preserve"
       style="font-size:22.5778px;font-family:'Segoe Script';-inkscape-font-specification:'Segoe Script';fill:#9393ac;stroke:#000000;stroke-width:0;stroke-opacity:0.988235"
       x="55.892986"
       y="201.28783"
       id="text5"><tspan
         sodipodi:role="line"
         id="tspan5"
         style="stroke-width:0"
         x="55.892986"
         y="201.28783" /></text>
    <path
       d="m 140.03677,150.0234 q 0,1.55756 -0.54972,3.05403 -0.54973,1.46593 -1.49648,2.77916 -0.9162,1.31323 -2.13781,2.41268 -1.19107,1.12999 -2.5043,1.92403 -1.28269,0.82459 -2.59592,1.25215 -1.31323,0.4581 -2.41268,0.4581 -1.52701,0 -2.01566,-0.67188 -0.48864,-0.67189 -0.48864,-1.89349 0,-1.12999 0.42756,-1.7408 0.42757,-0.58026 1.22161,-1.00783 0.0916,-0.0305 0.33595,-0.0611 0.24432,-0.0611 0.51918,-0.0611 0.3054,-0.0305 0.58026,-0.0305 0.30541,-0.0305 0.48865,-0.0305 0.21378,0 0.6108,-0.0916 0.39703,-0.0916 0.85513,-0.24432 0.4581,-0.18324 0.94675,-0.42756 0.48864,-0.27487 0.9162,-0.61081 1.22161,-0.97729 1.71026,-2.16835 0.51918,-1.22161 0.51918,-2.16836 0,-1.19107 -0.76351,-2.22944 -0.7635,-1.03837 -1.92403,-2.01565 -1.16053,-1.00783 -2.5043,-1.98512 -1.34377,-1.00783 -2.5043,-2.10727 -1.16053,-1.12999 -1.92403,-2.38214 -0.76351,-1.25215 -0.76351,-2.77916 0,-0.76351 0.18324,-1.61864 0.21378,-0.85512 0.51919,-1.67971 0.33594,-0.82459 0.73296,-1.58809 0.42757,-0.79405 0.88567,-1.43539 0.73296,-1.03837 1.58809,-2.0462 0.88567,-1.00783 1.77133,-1.77133 0.88567,-0.79405 1.7408,-1.25215 0.85512,-0.48864 1.58809,-0.48864 2.07674,0 2.07674,2.44321 0,0.85513 -0.70243,1.98512 -0.67188,1.12999 -1.61863,2.07673 -1.46593,1.40486 -2.56538,2.41268 -1.09945,0.97729 -2.0462,2.01566 0.70243,1.03837 1.52701,1.89349 0.82459,0.85513 1.71026,1.64918 0.9162,0.79404 1.83241,1.55755 0.94675,0.7635 1.86296,1.58809 0.85512,0.79405 1.61863,1.61863 0.79404,0.79405 1.40485,1.67972 0.6108,0.85512 0.97729,1.80187 0.36648,0.94675 0.36648,1.98511 z"
       id="text6"
       style="font-size:62.5464px;font-family:'Segoe Script';-inkscape-font-specification:'Segoe Script';fill:#7f2aff;stroke:#000000;stroke-width:0;stroke-opacity:0.988235"
       aria-label="s" />
  </g>
</svg>
