<?xml version="1.0" encoding="UTF-8" standalone="no"?>
<!-- Created with Inkscape (http://www.inkscape.org/) -->

<svg
   width="100.75259mm"
   height="106.67353mm"
   viewBox="0 0 100.75259 106.67353"
   version="1.1"
   id="svg1"
   sodipodi:docname="logo-yn.svg"
   inkscape:version="1.3 (0e150ed6c4, 2023-07-21)"
   xmlns:inkscape="http://www.inkscape.org/namespaces/inkscape"
   xmlns:sodipodi="http://sodipodi.sourceforge.net/DTD/sodipodi-0.dtd"
   xmlns="http://www.w3.org/2000/svg"
   xmlns:svg="http://www.w3.org/2000/svg">
  <sodipodi:namedview
     id="namedview1"
     pagecolor="#ffffff"
     bordercolor="#000000"
     borderopacity="0.25"
     inkscape:showpageshadow="2"
     inkscape:pageopacity="0.0"
     inkscape:pagecheckerboard="0"
     inkscape:deskcolor="#d1d1d1"
     inkscape:document-units="mm"
     inkscape:zoom="2.0164913"
     inkscape:cx="190.42978"
     inkscape:cy="201.09187"
     inkscape:window-width="1920"
     inkscape:window-height="1009"
     inkscape:window-x="-8"
     inkscape:window-y="-8"
     inkscape:window-maximized="1"
     inkscape:current-layer="layer1" />
  <defs
     id="defs1">
    <clipPath
       clipPathUnits="userSpaceOnUse"
       id="clipPath7">
      <rect
         style="fill:none;fill-opacity:0.992157;stroke:#000000;stroke-width:0.262145;stroke-dasharray:none;stroke-opacity:0.988235"
         id="rect7"
         width="73.000114"
         height="81.162521"
         x="45.674461"
         y="67.94313"
         transform="matrix(0.98275367,0.1849195,-0.38864487,0.92138763,0,0)" />
    </clipPath>
    <clipPath
       clipPathUnits="userSpaceOnUse"
       id="clipPath8">
      <rect
         style="fill:none;fill-opacity:0.992157;stroke:#000000;stroke-width:0.260916;stroke-dasharray:none;stroke-opacity:0.988235"
         id="rect8"
         width="73.22541"
         height="80.155998"
         x="46.447521"
         y="67.014534"
         transform="matrix(0.98214645,-0.18811793,0.37541501,0.92685682,0,0)" />
    </clipPath>
    <clipPath
       clipPathUnits="userSpaceOnUse"
       id="clipPath9">
      <rect
         style="fill:none;fill-opacity:0.992157;stroke:#000000;stroke-width:0.254884;stroke-dasharray:none;stroke-opacity:0.988235"
         id="rect9"
         width="76.29261"
         height="73.417122"
         x="52.898609"
         y="61.369305" />
    </clipPath>
    <clipPath
       clipPathUnits="userSpaceOnUse"
       id="clipPath10">
      <rect
         style="fill:none;fill-opacity:0.992157;stroke:#000000;stroke-width:0.260751;stroke-dasharray:none;stroke-opacity:0.988235"
         id="rect10"
         width="73.25161"
         height="80.02581"
         x="46.502838"
         y="66.872009"
         transform="matrix(0.98197726,-0.18899908,0.37385455,0.92748734,0,0)" />
    </clipPath>
    <clipPath
       clipPathUnits="userSpaceOnUse"
       id="clipPath11">
      <rect
         style="fill:none;fill-opacity:0.992157;stroke:#000000;stroke-width:0.261946;stroke-dasharray:none;stroke-opacity:0.988235"
         id="rect11"
         width="73.113495"
         height="80.913559"
         x="65.618698"
         y="67.595978"
         transform="matrix(0.9835055,-0.18087825,0.38299471,0.92375054,0,0)" />
    </clipPath>
  </defs>
  <g
     id="layer1"
     transform="translate(-35.597398,-43.498198)">
    <ellipse
       style="fill:#e6e6e6;fill-opacity:0.987277;stroke:#ff0000;stroke-width:0.374726;stroke-dasharray:none"
       id="path3"
       cx="85.964928"
       cy="96.834961"
       rx="50.180164"
       ry="53.149403" />
    <rect
       style="fill:#3bd4ff;fill-opacity:0.992157;stroke-width:0"
       id="rect2"
       width="7.3184566"
       height="42.306683"
       x="19.068707"
       y="71.270226"
       transform="matrix(0.98524561,-0.17114637,0.41558041,0.90955644,0,0)"
       clip-path="url(#clipPath7)" />
    <rect
       style="fill:#800080;fill-opacity:0.987277;stroke-width:0"
       id="rect2-4-4"
       width="7.3248305"
       height="80.578812"
       x="135.28391"
       y="41.169487"
       transform="matrix(0.98581282,0.16784838,-0.40872625,0.91265703,0,0)"
       clip-path="url(#clipPath11)" />
    <rect
       style="fill:#800080;fill-opacity:0.987277;stroke-width:0"
       id="rect2-1"
       width="7.4911571"
       height="74.439766"
       x="83.54158"
       y="60.470131"
       clip-path="url(#clipPath9)" />
    <rect
       style="fill:#3bd4ff;fill-opacity:0.992157;stroke-width:0"
       id="rect2-1-6-4-4"
       width="3.7306235"
       height="81.238892"
       x="102.64884"
       y="45.869335"
       transform="matrix(0.98445234,0.1756519,-0.39874356,0.91706247,0,0)"
       clip-path="url(#clipPath8)" />
    <rect
       style="fill:#800080;fill-opacity:0.987277;stroke-width:0"
       id="rect2-1-6-4-4-9"
       width="3.7313156"
       height="81.648628"
       x="106.08244"
       y="44.8577"
       transform="matrix(0.98426978,0.17667202,-0.3967426,0.91792991,0,0)"
       clip-path="url(#clipPath10)" />
    <path
       style="font-size:15.2805px;font-family:'Segoe Script';-inkscape-font-specification:'Segoe Script';fill:#00ffff;fill-opacity:0.992157;stroke:#000000;stroke-width:0.220634;stroke-opacity:0.988235"
       d="m 74.220741,119.47926 q 0,0.12684 -0.05969,0.26114 -0.05223,0.12684 -0.141762,0.25368 -0.08953,0.11938 -0.201452,0.2313 -0.104457,0.10445 -0.216374,0.1716 -0.261142,0.17161 -0.746119,0.30591 -0.477515,0.12684 -1.186328,0.12684 -0.567049,0 -1.14156,-0.14176 -0.574511,-0.14922 -1.104255,-0.48498 0.171607,0.26114 0.216374,0.4999 0.05223,0.23876 0.05223,0.56705 0,0.58943 -0.298447,1.25348 -0.290986,0.67151 -0.753579,1.24602 -0.462594,0.57451 -0.977415,0.95503 -0.290986,0.21637 -0.641662,0.38052 -0.343214,0.15668 -0.723734,0.26114 -0.380521,0.097 -0.790886,0.14922 -0.410365,0.0448 -0.828191,0.0448 -0.290986,0 -0.56705,-0.18653 -0.276063,-0.18653 -0.492438,-0.45513 -0.216374,-0.2686 -0.350675,-0.57451 -0.12684,-0.30591 -0.12684,-0.55213 0,-0.60436 0.156684,-1.15648 0.164146,-0.55959 0.432749,-1.07441 0.276064,-0.52229 0.6342,-1.01472 0.358137,-0.4999 0.761041,-0.99234 0.223835,-0.27606 0.50736,-0.53721 0.290986,-0.2686 0.604356,-0.47751 0.31337,-0.20891 0.634201,-0.33575 0.32083,-0.13431 0.611816,-0.13431 0.238758,0 0.410365,0.0671 0.171608,0.0672 0.320831,0.194 0.156685,0.11937 0.31337,0.3059 0.164146,0.18653 0.373059,0.41783 0.06715,0.0671 0.365598,0.20145 0.305908,0.12684 0.716273,0.25368 0.417827,0.11938 0.872959,0.21638 0.455132,0.0895 0.828191,0.0895 0.373059,0 0.686429,-0.0224 0.313369,-0.0298 0.604355,-0.0895 0.298448,-0.0597 0.589434,-0.16414 0.290986,-0.10446 0.626739,-0.25368 0.02985,0.11191 0.02985,0.19399 z m -5.573503,1.79068 q 0.0075,-0.20891 -0.02984,-0.47005 -0.03731,-0.26861 -0.134301,-0.4999 -0.08953,-0.23876 -0.246219,-0.38798 -0.149224,-0.14923 -0.373059,-0.11938 -0.343215,-0.1343 -0.56705,-0.28353 -0.223836,-0.14922 -0.343214,-0.14922 -0.08954,0 -0.193991,0.0597 -0.104457,0.0522 -0.216374,0.14922 -0.111918,0.097 -0.231297,0.2313 -0.111918,0.12684 -0.223836,0.2686 -0.223835,0.29099 -0.417826,0.52974 -0.186529,0.23876 -0.358136,0.47752 -0.164146,0.2313 -0.320831,0.49244 -0.156685,0.25368 -0.31337,0.57451 -0.06715,0.1343 -0.119379,0.32083 -0.05223,0.18653 -0.08953,0.38798 -0.03731,0.19399 -0.05969,0.39544 -0.01492,0.19399 -0.01492,0.35068 0,0.097 0.06715,0.23876 0.06715,0.1343 0.171607,0.2686 0.111918,0.12684 0.246219,0.21637 0.141762,0.0895 0.276064,0.0895 0.38052,0 0.649123,-0.0299 0.268602,-0.0373 0.492438,-0.11938 0.231296,-0.0895 0.462593,-0.23875 0.231296,-0.14923 0.537205,-0.38798 0.149224,-0.11192 0.290986,-0.26115 0.149224,-0.14922 0.290986,-0.31337 0.141763,-0.1716 0.268603,-0.34321 0.12684,-0.17907 0.238757,-0.35068 0.07461,-0.11191 0.126841,-0.27606 0.05223,-0.16415 0.08207,-0.32829 0.02984,-0.16415 0.03731,-0.29845 0.01492,-0.1343 0.01492,-0.19399 z m 9.46824,-1.2684 q -0.05969,0.51482 -0.09699,1.14156 -0.03731,0.62674 -0.097,1.39524 -0.02238,0.28353 -0.05969,0.64166 -0.03731,0.35814 -0.08207,0.73866 -0.04477,0.38052 -0.08953,0.75358 -0.04477,0.3656 -0.08953,0.66404 -0.06715,0.43275 -0.171607,0.89535 -0.104456,0.47005 -0.261141,0.92518 -0.156685,0.45514 -0.387982,0.8655 -0.223835,0.41037 -0.537205,0.71627 -0.313369,0.31337 -0.731195,0.49244 -0.410365,0.18653 -0.940109,0.18653 -0.335754,0 -0.678968,-0.0821 -0.343214,-0.0821 -0.678967,-0.22384 -0.328292,-0.1343 -0.641662,-0.32829 -0.305909,-0.18653 -0.56705,-0.4029 -0.290986,-0.23876 -0.514821,-0.49244 -0.223836,-0.24622 -0.37306,-0.50736 -0.149223,-0.25368 -0.149223,-0.4999 0,-0.2313 0.149223,-0.2313 0.05223,0 0.111918,0.0522 0.02984,0.0224 0.07461,0.0671 0.03731,0.0448 0.07461,0.0821 0.03731,0.0448 0.06715,0.0746 0.02984,0.0373 0.03731,0.0448 1.440008,1.32809 3.074007,1.32809 0.544667,0 0.887881,-0.25368 0.350675,-0.24622 0.552127,-0.64912 0.208913,-0.39544 0.31337,-0.88788 0.111918,-0.48498 0.18653,-0.96249 0.04477,-0.29845 0.07461,-0.5969 0.03731,-0.29844 0.06715,-0.61927 0.02984,-0.3283 0.05969,-0.68643 0.02985,-0.35814 0.06715,-0.77597 -0.305908,0.3283 -0.775963,0.70135 -0.462593,0.3656 -0.999798,0.67897 -0.529744,0.31337 -1.07441,0.52229 -0.537205,0.20145 -0.992338,0.20145 -0.19399,0 -0.358136,-0.0895 -0.164146,-0.0895 -0.283525,-0.25368 -0.119379,-0.1716 -0.193991,-0.41036 -0.06715,-0.24622 -0.06715,-0.54467 0,-0.43275 0.149224,-0.92519 0.149224,-0.49243 0.38052,-0.97741 0.231297,-0.49244 0.514822,-0.94757 0.283525,-0.46259 0.552127,-0.82819 0.268603,-0.35814 0.649123,-0.74612 0.38052,-0.39544 0.813269,-0.71627 0.44021,-0.32829 0.910264,-0.53721 0.470055,-0.20891 0.917726,-0.20891 0.395442,0 0.738657,0.17907 0.343214,0.1716 0.529743,0.52228 0.04477,0.0821 0.05223,0.24622 0.0075,0.15668 -0.0075,0.3656 -0.01492,0.20145 -0.04477,0.44021 -0.02984,0.23129 -0.05969,0.46259 z m -1.223634,1.35794 q 0.02984,-0.22384 0.05969,-0.53721 0.02984,-0.32083 0.07461,-0.79089 0.02238,-0.24621 0.04477,-0.49243 0.02984,-0.24622 -0.01492,-0.40291 -0.05969,-0.21637 -0.231296,-0.27606 -0.171608,-0.0597 -0.559589,-0.0597 -0.358137,0.22384 -0.716274,0.55213 -0.350675,0.32829 -0.678967,0.70881 -0.320831,0.38052 -0.596895,0.79088 -0.276063,0.40291 -0.484976,0.79089 -0.231297,0.42529 -0.365598,0.85057 -0.134302,0.41783 -0.134302,0.70882 0,0.12684 0.04477,0.20891 0.05223,0.0821 0.126841,0.1343 0.08207,0.0448 0.179068,0.0672 0.104456,0.0149 0.208913,0.0149 0.261141,0 0.559589,-0.11191 0.305908,-0.11192 0.604355,-0.27607 0.298448,-0.16414 0.56705,-0.34321 0.268603,-0.18653 0.462593,-0.33575 0.08207,-0.0597 0.216375,-0.18653 0.134301,-0.12684 0.268602,-0.29099 0.134302,-0.17161 0.238758,-0.35814 0.104457,-0.18653 0.12684,-0.36559 z m 7.304497,-1.26841 q 0,-0.55958 -0.171608,-0.8058 -0.164146,-0.24622 -0.38052,-0.24622 -0.186529,0 -0.38052,0.0746 -0.18653,0.0671 -0.358137,0.17907 -0.171607,0.11192 -0.313369,0.24622 -0.141763,0.1343 -0.231297,0.26114 -0.179068,0.23876 -0.38052,0.54466 -0.193991,0.30591 -0.395443,0.64167 -0.193991,0.33575 -0.373059,0.68642 -0.179068,0.35068 -0.320831,0.68643 -0.134301,0.3283 -0.216374,0.6342 -0.08207,0.29845 -0.08207,0.53721 0,0.35067 0.134301,0.56705 0.134301,0.20891 0.50736,0.20891 0.126841,0 0.37306,-0.15668 0.246219,-0.16415 0.522282,-0.41037 0.283525,-0.24622 0.552128,-0.52974 0.268602,-0.29099 0.440209,-0.55213 0.18653,-0.27606 0.37306,-0.60436 0.19399,-0.32829 0.350675,-0.6715 0.156685,-0.34322 0.25368,-0.67151 0.097,-0.33575 0.097,-0.61928 z m 4.1708,3.32769 q 0,0.11938 -0.05223,0.27606 -0.04477,0.14923 -0.149224,0.30591 -0.134301,0.2313 -0.358136,0.47752 -0.216375,0.23876 -0.492438,0.44021 -0.268603,0.19399 -0.589434,0.32083 -0.320831,0.12684 -0.664045,0.12684 -0.447671,0 -0.775963,-0.20145 -0.320831,-0.20145 -0.559588,-0.54467 -0.231297,-0.35067 -0.387982,-0.81327 -0.149224,-0.46259 -0.246219,-0.97741 -0.328292,0.47751 -0.783424,0.94757 -0.447671,0.47005 -0.932648,0.85057 -0.477515,0.37306 -0.94757,0.61182 -0.462593,0.2313 -0.82073,0.2313 -0.238758,0 -0.462593,-0.11938 -0.216374,-0.11938 -0.387982,-0.32083 -0.164146,-0.20146 -0.261141,-0.4626 -0.09699,-0.26114 -0.09699,-0.55212 0,-0.29099 0.04477,-0.61182 0.05223,-0.32083 0.164146,-0.68643 0.119379,-0.37306 0.298447,-0.80581 0.18653,-0.43275 0.455132,-0.94757 0.298447,-0.58197 0.708812,-1.09679 0.410365,-0.52228 0.835653,-0.91027 0.425287,-0.39544 0.805807,-0.61927 0.387982,-0.2313 0.62674,-0.2313 0.06715,0 0.149223,0.0298 0.08953,0.0298 0.179069,0.0672 0.097,0.0298 0.179068,0.0597 0.08953,0.0224 0.149224,0.0224 0.05969,0 0.119379,-0.0224 0.05969,-0.0298 0.119379,-0.0597 0.05969,-0.0373 0.119378,-0.0672 0.05969,-0.0298 0.119379,-0.0298 0.08953,0 0.193991,0.0597 0.104457,0.0597 0.201452,0.15668 0.097,0.0895 0.171607,0.20892 0.07461,0.11938 0.104457,0.23129 0.02984,0.13431 0.07461,0.20146 0.05223,0.0597 0.09699,0.11191 0.05223,0.0522 0.08207,0.12684 0.03731,0.0671 0.03731,0.21638 0,0.0746 -0.05223,0.31337 -0.05223,0.23876 -0.119379,0.55959 -0.05969,0.31337 -0.111918,0.65658 -0.05223,0.34321 -0.05223,0.62674 0,0.79835 0.08953,1.30571 0.08953,0.50736 0.246219,0.8058 0.156685,0.29099 0.365598,0.40291 0.216374,0.11192 0.455132,0.11192 0.56705,0 0.925186,-0.194 0.365598,-0.19399 0.649123,-0.57451 0.08207,-0.10445 0.141763,-0.18653 0.05969,-0.0821 0.119379,-0.0821 0.104456,0 0.186529,0.0821 0.08953,0.0821 0.08953,0.17161 z"
       id="text11"
       transform="matrix(0.92232473,-0.01959479,0.01684598,1.0838589,0,0)"
       aria-label="oga" />
    <path
       style="font-size:18.535px;font-family:'Segoe Script';-inkscape-font-specification:'Segoe Script';fill:#800080;fill-opacity:0.992157;stroke:#000000;stroke-width:0.267628;stroke-opacity:0.988235"
       d="m 105.38135,114.72802 q 0,0.58827 -0.30771,1.00459 -0.29866,0.41631 -0.87788,0.41631 -0.36201,0 -0.80548,-0.1086 -0.43441,-0.10861 -0.43441,-0.35296 0,-0.44347 0.27151,-0.84168 0.28056,-0.40726 0.66972,-0.66067 0.30771,-0.18101 0.40726,-0.18101 0.51587,0 0.79643,0.14481 0.28056,0.13575 0.28056,0.57921 z m 5.92794,7.35789 q 0.009,0.19006 -0.17196,0.51587 -0.17195,0.32581 -0.47966,0.74212 -0.29866,0.40727 -0.70592,0.87788 -0.39822,0.47062 -0.84168,0.94123 -0.50682,0.54302 -1.07699,1.04984 -0.56111,0.49776 -1.20369,0.96838 -1.26704,0.94123 -2.26257,0.94123 -1.09508,0 -1.70145,-0.73308 -0.60637,-0.74212 -0.82358,-1.79195 -0.21721,-1.04079 -0.21721,-2.14492 0,-0.46157 0.10861,-1.439 0.0543,-0.48872 0.1086,-0.84168 0.0543,-0.35296 0.11765,-0.57017 0.12671,-0.42536 0.53397,-0.74212 0.41631,-0.33486 0.86883,-0.33486 0.24436,0 0.24436,0.46156 0,0.30771 -0.0634,0.69688 -0.0543,0.38916 -0.11765,0.76927 -0.11765,0.71498 -0.17195,1.28514 -0.0543,0.56112 -0.0543,0.97744 0,0.91408 0.25341,1.84626 0.25341,0.95028 0.91408,0.95028 0.66972,0 1.55665,-0.48872 0.44347,-0.25341 0.88693,-0.56112 0.44346,-0.30771 0.88693,-0.68782 0.45251,-0.38011 0.86883,-0.76022 0.41631,-0.38917 0.81452,-0.79643 0.39822,-0.40726 0.71498,-0.76023 0.31676,-0.35296 0.55206,-0.65162 0.009,-0.0181 0.0272,-0.0543 0.0271,-0.0453 0.0543,-0.0815 0.0271,-0.0452 0.0543,-0.0724 0.0272,-0.0272 0.0543,-0.0181 0.1267,0 0.19006,0.1991 0.0815,0.19006 0.0815,0.30771 z m 2.20827,-2.93229 q 0,0.0905 -0.0633,0.24436 -0.0633,0.15385 -0.17196,0.33486 -0.1086,0.17195 -0.2534,0.36201 -0.14481,0.181 -0.30771,0.33486 -0.10861,0.0995 -0.23531,0.23531 -0.12671,0.1267 -0.23531,0.28056 -0.0995,0.1448 -0.17196,0.30771 -0.0633,0.1629 -0.0633,0.30771 0,0.42536 0.15386,0.84167 0.1629,0.40727 0.51586,0.94123 0.16291,0.24436 0.38012,0.55207 0.2172,0.30771 0.43441,0.66067 0.21721,0.34391 0.39821,0.73308 0.18101,0.38011 0.27151,0.77832 0.84168,-0.70592 1.63811,-1.52045 0.80547,-0.82357 1.49329,-1.6562 0.69688,-0.83263 1.24894,-1.62 0.55207,-0.78738 0.89598,-1.42995 0.14481,-0.26246 0.23531,-0.43441 0.0996,-0.18101 0.18101,-0.28961 0.0815,-0.10861 0.15385,-0.15386 0.0815,-0.0452 0.18101,-0.0452 0.181,0 0.26246,0.1267 0.0814,0.12671 0.0814,0.35297 0,0.20815 -0.18101,0.66067 -0.17195,0.45251 -0.55207,1.12223 -0.38011,0.66067 -0.98648,1.52045 -0.59732,0.85073 -1.44804,1.87341 -0.47062,0.56112 -1.06794,1.16749 -0.59732,0.59732 -1.24894,1.16749 -0.65162,0.57017 -1.31229,1.07698 -0.66067,0.51587 -1.24894,0.89598 -0.57922,0.38917 -1.05889,0.61542 -0.47061,0.22626 -0.74212,0.22626 -0.1448,0 -0.28056,-0.0905 -0.1267,-0.0815 -0.22626,-0.20816 -0.0905,-0.11765 -0.15385,-0.25341 -0.0543,-0.13575 -0.0543,-0.24436 0,-0.1991 0.0905,-0.35296 0.0995,-0.15385 0.25341,-0.28056 0.1629,-0.1267 0.36201,-0.22625 0.20816,-0.0996 0.41631,-0.19006 0.13576,-0.0543 0.30771,-0.11765 0.17196,-0.0634 0.35296,-0.12671 0.18101,-0.0724 0.34392,-0.15385 0.17195,-0.0905 0.28055,-0.19006 0.19006,-0.181 0.29866,-0.41631 0.10861,-0.24436 0.10861,-0.49777 0,-0.1448 -0.0996,-0.37106 -0.0995,-0.22626 -0.26245,-0.47967 -0.16291,-0.26245 -0.36202,-0.54301 -0.1991,-0.28961 -0.39821,-0.56112 -0.1991,-0.28056 -0.38011,-0.52492 -0.17196,-0.25341 -0.28056,-0.44346 -0.20816,-0.34391 -0.36201,-0.75118 -0.15386,-0.40726 -0.15386,-0.84167 0,-0.15386 0.0452,-0.37107 0.0453,-0.22625 0.11766,-0.46156 0.0724,-0.23531 0.1448,-0.45252 0.0815,-0.2172 0.15386,-0.36201 0.0272,-0.0453 0.11765,-0.19005 0.0996,-0.14481 0.23531,-0.32581 0.1448,-0.18101 0.31676,-0.38012 0.17196,-0.20815 0.34391,-0.38011 0.18101,-0.17195 0.34391,-0.28056 0.17196,-0.1086 0.30771,-0.1086 0.38011,0 0.63352,0.1629 0.26246,0.16291 0.26246,0.44347 z m 21.19579,2.87799 q 0,0.19006 -0.27151,0.59732 -0.0996,0.16291 -0.25341,0.36201 -0.15385,0.19911 -0.32581,0.40727 -0.1629,0.1991 -0.32581,0.38011 -0.1629,0.181 -0.28961,0.30771 -0.52492,0.53396 -1.11319,1.02268 -0.58826,0.48872 -1.22178,0.87788 -0.62447,0.38011 -1.30325,0.61542 -0.66972,0.23531 -1.36659,0.24436 -0.53397,0 -0.95028,-0.19911 -0.40726,-0.19911 -0.64257,-0.64257 -0.23531,-0.44346 -0.35296,-0.99553 -0.11766,-0.55207 -0.19006,-1.18559 -0.009,-0.0996 -0.0272,-0.29866 -0.0181,-0.19911 -0.0452,-0.43441 -0.0181,-0.24436 -0.0543,-0.49777 -0.0362,-0.25341 -0.0815,-0.46157 -0.0452,-0.20815 -0.1086,-0.33486 -0.0543,-0.13575 -0.1267,-0.13575 -0.28056,0 -0.76928,0.38011 -0.48872,0.37106 -1.06793,0.98648 -0.57922,0.60637 -1.18559,1.37565 -0.60637,0.76927 -1.13129,1.5657 -0.46156,0.68782 -0.84168,1.38469 -0.37106,0.68783 -0.65162,1.20369 -0.15385,0.23531 -0.32581,0.32581 -0.17195,0.0996 -0.23531,0.0996 -0.1448,0 -0.29866,-0.0724 -0.1448,-0.0633 -0.2715,-0.17195 -0.11766,-0.10861 -0.19911,-0.25341 -0.0724,-0.13575 -0.0724,-0.27151 0,-0.11765 0.0362,-0.38011 0.0452,-0.27151 0.0996,-0.60637 0.0543,-0.33486 0.10861,-0.68782 0.0543,-0.36201 0.0905,-0.66972 0.0633,-0.59732 0.1448,-1.3123 0.0815,-0.71497 0.15386,-1.43899 0.0724,-0.73308 0.13575,-1.42995 0.0633,-0.69687 0.0996,-1.25799 0.009,-0.18101 0.0271,-0.47967 0.0181,-0.29866 0.0362,-0.65162 0.0181,-0.36201 0.0362,-0.76022 0.0181,-0.39821 0.0362,-0.76928 0.0181,-0.38011 0.0272,-0.70592 0.0181,-0.33486 0.0272,-0.56112 0.009,-0.25341 0.0271,-0.47061 0.0272,-0.21721 0.0633,-0.42537 0.0453,-0.2172 0.11766,-0.42536 0.0815,-0.21721 0.1991,-0.47062 0.0362,-0.0815 0.11766,-0.181 0.0815,-0.0995 0.181,-0.18101 0.10861,-0.0815 0.22626,-0.13575 0.12671,-0.0633 0.25341,-0.0633 0.26246,0 0.47062,0.20815 0.2172,0.20816 0.2172,0.57922 0,0.11766 -0.0452,0.31676 -0.0362,0.19911 -0.0905,0.41632 -0.0543,0.20815 -0.10861,0.40726 -0.0452,0.19005 -0.0633,0.28961 -0.0724,0.37106 -0.1267,0.85073 -0.0543,0.47966 -0.10861,0.97743 -0.0452,0.49776 -0.0815,0.98648 -0.0362,0.47966 -0.0633,0.85978 -0.0271,0.43441 -0.0724,0.81452 -0.0362,0.38012 -0.0815,0.76023 -0.0362,0.37106 -0.0724,0.76022 -0.0362,0.38011 -0.0724,0.82358 -0.0633,0.66972 -0.1448,1.18559 -0.0815,0.50681 -0.0815,0.86883 0,0.0543 0.0543,0.1267 0.0634,0.0724 0.10861,0.0724 h 0.0362 q 0.0814,-0.0995 0.20816,-0.29866 0.1267,-0.1991 0.28961,-0.43441 0.1629,-0.23531 0.33486,-0.48872 0.181,-0.26246 0.35296,-0.47966 0.17195,-0.21721 0.37106,-0.47062 0.20816,-0.26246 0.42536,-0.52492 0.22626,-0.26245 0.45252,-0.52491 0.23531,-0.26246 0.45251,-0.48872 0.28056,-0.28056 0.62447,-0.58827 0.34391,-0.30771 0.71498,-0.56112 0.38011,-0.2534 0.76022,-0.41631 0.38011,-0.1629 0.72402,-0.1629 0.0634,0 0.16291,0.0362 0.1086,0.0362 0.20816,0.1086 0.1086,0.0633 0.1991,0.16291 0.0905,0.0905 0.13576,0.2172 0.181,0.48872 0.26246,0.97743 0.0814,0.48872 0.1448,1.03174 0.0543,0.46156 0.11765,0.95028 0.0634,0.48871 0.16291,0.88693 0.0995,0.39821 0.25341,0.65162 0.1629,0.25341 0.40726,0.25341 1.11319,0 2.13587,-0.49777 0.54302,-0.26246 0.93218,-0.50682 0.39821,-0.24435 0.73307,-0.50681 0.34391,-0.26246 0.67878,-0.57922 0.33486,-0.31676 0.77832,-0.73307 0.87788,-0.80548 1.02268,-0.80548 0.13576,0 0.13576,0.37106 z m 3.64727,-0.89598 q 0,-0.67877 -0.20816,-0.97743 -0.19911,-0.29866 -0.46157,-0.29866 -0.22625,0 -0.46156,0.0905 -0.22626,0.0815 -0.43442,0.21721 -0.20815,0.13576 -0.38011,0.29866 -0.17195,0.16291 -0.28056,0.31676 -0.2172,0.28961 -0.46156,0.66067 -0.23531,0.37106 -0.47967,0.77833 -0.2353,0.40726 -0.45251,0.83262 -0.21721,0.42537 -0.38916,0.83263 -0.16291,0.39821 -0.26246,0.76928 -0.0996,0.36201 -0.0996,0.65162 0,0.42536 0.16291,0.68782 0.1629,0.25341 0.61542,0.25341 0.15385,0 0.45251,-0.19006 0.29866,-0.19911 0.63352,-0.49776 0.34392,-0.29866 0.66973,-0.64258 0.32581,-0.35296 0.53396,-0.66972 0.22626,-0.33486 0.45252,-0.73307 0.23531,-0.39821 0.42536,-0.81453 0.19006,-0.41631 0.30771,-0.81452 0.11766,-0.40727 0.11766,-0.75118 z m 5.05911,4.03643 q 0,0.14481 -0.0633,0.33486 -0.0543,0.18101 -0.18101,0.37107 -0.1629,0.28055 -0.43441,0.57921 -0.26246,0.28961 -0.59732,0.53397 -0.32581,0.23531 -0.71498,0.38916 -0.38916,0.15386 -0.80547,0.15386 -0.54302,0 -0.94123,-0.24436 -0.38916,-0.24436 -0.67877,-0.66067 -0.28056,-0.42536 -0.47062,-0.98648 -0.18101,-0.56112 -0.29866,-1.18559 -0.39821,0.57922 -0.95028,1.14939 -0.54302,0.57017 -1.13129,1.03173 -0.57922,0.45251 -1.14938,0.74212 -0.56112,0.28056 -0.99554,0.28056 -0.28961,0 -0.56111,-0.1448 -0.26246,-0.14481 -0.47062,-0.38916 -0.19911,-0.24436 -0.31676,-0.56112 -0.11765,-0.31676 -0.11765,-0.66972 0,-0.35297 0.0543,-0.74213 0.0633,-0.38916 0.19911,-0.83262 0.1448,-0.45252 0.36201,-0.97744 0.22625,-0.52491 0.55206,-1.14938 0.36202,-0.70593 0.85978,-1.3304 0.49777,-0.63352 1.01364,-1.10413 0.51586,-0.47967 0.97743,-0.75118 0.47061,-0.28056 0.76022,-0.28056 0.0815,0 0.18101,0.0362 0.1086,0.0362 0.2172,0.0815 0.11766,0.0362 0.21721,0.0724 0.1086,0.0271 0.18101,0.0271 0.0724,0 0.1448,-0.0271 0.0724,-0.0362 0.14481,-0.0724 0.0724,-0.0453 0.1448,-0.0815 0.0724,-0.0362 0.14481,-0.0362 0.1086,0 0.2353,0.0724 0.12671,0.0724 0.24436,0.19005 0.11766,0.10861 0.20816,0.25341 0.0905,0.14481 0.1267,0.28056 0.0362,0.16291 0.0905,0.24436 0.0633,0.0724 0.11765,0.13575 0.0633,0.0633 0.0995,0.15386 0.0452,0.0815 0.0452,0.26246 0,0.0905 -0.0633,0.38011 -0.0634,0.28961 -0.1448,0.67877 -0.0724,0.38011 -0.13576,0.79643 -0.0633,0.41631 -0.0633,0.76022 0,0.96838 0.1086,1.5838 0.10861,0.61542 0.29866,0.97743 0.19006,0.35296 0.44347,0.48872 0.26246,0.13575 0.55207,0.13575 0.68782,0 1.12223,-0.2353 0.44347,-0.23531 0.78738,-0.69688 0.0995,-0.1267 0.17195,-0.22625 0.0724,-0.0996 0.14481,-0.0996 0.1267,0 0.22626,0.0996 0.1086,0.0996 0.1086,0.20815 z"
       id="text12"
       transform="matrix(0.95431269,0.00589509,-0.00536891,1.0478414,0,0)"
       aria-label="isha" />
  </g>
</svg>
